<svg xmlns="http://www.w3.org/2000/svg" viewBox="0 0 1440 320" width="1440" height="320">
	<style>
		tspan { white-space:pre }
		.shp0 { fill: #ffffff } 
	</style>
	<path id="Layer" class="shp0" d="M0 64L48 96C96 128 192 192 288 218.7C384 245 480 235 576 229.3C672 224 768 224 864 240C960 256 1056 288 1152 304C1248 320 1344 320 1392 320L1440 320L1440 320L1392 320C1344 320 1248 320 1152 320C1056 320 960 320 864 320C768 320 672 320 576 320C480 320 384 320 288 320C192 320 96 320 48 320L0 320L0 64Z" />
</svg>